<?xml version="1.0" encoding="UTF-8"?>
<svg id="Calque_1" data-name="Calque 1" xmlns="http://www.w3.org/2000/svg" viewBox="0 0 64 64.09">
  <defs>
    <style>
      .cls-1 {
        fill: #1d1d1b;
      }

      .cls-1, .cls-2 {
        stroke: #1d1d1b;
        stroke-miterlimit: 10;
        stroke-width: 2px;
      }

      .cls-2 {
        fill: none;
      }
    </style>
  </defs>
  <g>
    <path class="cls-2" d="M31.54,2.36C15.14,2.36,1.85,15.65,1.85,32.05s13.29,29.69,29.69,29.69,29.69-13.29,29.69-29.69S47.93,2.36,31.54,2.36ZM31.2,8.26c5.54,0,10.03,4.49,10.03,10.03s-4.49,10.03-10.03,10.03-10.03-4.49-10.03-10.03,4.49-10.03,10.03-10.03ZM44.92,51.98c-13.34.34-28.61.89-30.44-1.98-2.79-4.39-.34-19.52,7.64-18.93,7.53,5.02,12.54,4.79,18.47,0,9.58-1.6,12.54,20.75,4.33,20.91Z"/>
    <circle class="cls-1" cx="31.2" cy="18.95" r="10.03"/>
    <path class="cls-1" d="M40.59,31.72c-5.93,4.79-10.95,5.02-18.47,0-7.98-.59-10.43,14.54-7.64,18.93,1.82,2.87,17.1,2.32,30.44,1.98,8.22-.16,5.25-22.51-4.33-20.91Z"/>
  </g>
  <g>
    <path class="cls-2" d="M31.86,2.36C15.47,2.36,2.17,15.65,2.17,32.05s13.29,29.69,29.69,29.69,29.69-13.29,29.69-29.69S48.26,2.36,31.86,2.36ZM31.53,8.26c5.54,0,10.03,4.49,10.03,10.03s-4.49,10.03-10.03,10.03-10.03-4.49-10.03-10.03,4.49-10.03,10.03-10.03ZM45.24,51.98c-13.34.34-28.61.89-30.44-1.98-2.79-4.39-.34-19.52,7.64-18.93,7.53,5.02,12.54,4.79,18.47,0,9.58-1.6,12.54,20.75,4.33,20.91Z"/>
    <circle class="cls-1" cx="31.53" cy="18.95" r="10.03"/>
    <path class="cls-1" d="M40.92,31.72c-5.93,4.79-10.95,5.02-18.47,0-7.98-.59-10.43,14.54-7.64,18.93,1.82,2.87,17.1,2.32,30.44,1.98,8.22-.16,5.25-22.51-4.33-20.91Z"/>
  </g>
</svg>